# xmcd
#
# Track frame offsets:
#	183
#	9290
#	19025
#	27778
#	40225
#	52580
#	60995
#	73725
#	84475
#	96873
#	105230
#	119770
#	129973
#	140983
#	150680
#	161360
#	174068
#	187928
#
# Disc length: 2668 seconds
#
# Revision: 5
# Processed by: cddbd v1.4PL0 Copyright (c) Steve Scherf et al.
# Submitted via: MusicWizard 6.0.0
#
DISCID=d30a6a12
DTITLE=Various Artist - Eis Am Stiel - Die Superparty
DYEAR=1993
DGENRE=Pop
TTITLE0=Bobby Fuller Four - Love´s Made A Fool Of You
TTITLE1=Jan and Dean - Heart and Soul
TTITLE2=Roy Orbison - Claudette
TTITLE3=The Dixie Cups - Chapel Of Love
TTITLE4=Fats Domino - Lazy Lady
TTITLE5=Jerry Lee Lewis - Great Balls Of Fire
TTITLE6=Carl Perkins - Honey Don´t
TTITLE7=Bill Justis - Raunchy
TTITLE8=The Platters - Twilight Time
TTITLE9=Ritchie Valens - That´s My Little Susie
TTITLE10=Gene Pitney - She´s A Heartbreaker
TTITLE11=The Shirelles - I Met Him On A Sunday
TTITLE12=The Dreamlovers - When We Get Married
TTITLE13=Champs - Too Much Tequila
TTITLE14=Little Richard - Tutti Frutti
TTITLE15=Amen Corner - If Paradise Is Half As Nice
TTITLE16=Debbie Reynolds - Tammy
TTITLE17=The Spaniels - Goodnite Sweetheart
EXTD=
EXTT0=
EXTT1=
EXTT2=
EXTT3=
EXTT4=
EXTT5=
EXTT6=
EXTT7=
EXTT8=
EXTT9=
EXTT10=
EXTT11=
EXTT12=
EXTT13=
EXTT14=
EXTT15=
EXTT16=
EXTT17=
PLAYORDER=
